<svg width="44" height="42" viewBox="0 0 44 42" fill="none" xmlns="http://www.w3.org/2000/svg">
<path fill-rule="evenodd" clip-rule="evenodd" d="M22 18C25.746 18 29.14 19.24 31.63 20.974C33.996 22.624 36 25.076 36 27.714C36 29.162 35.382 30.362 34.408 31.254C33.492 32.096 32.296 32.642 31.064 33.014C28.602 33.76 25.36 34 22 34C18.64 34 15.398 33.76 12.936 33.014C11.704 32.642 10.508 32.096 9.59 31.254C8.62 30.364 8 29.164 8 27.716C8 25.078 10.004 22.626 12.37 20.976C14.86 19.24 18.254 18 22 18ZM22 22C19.12 22 16.514 22.96 14.66 24.254C12.682 25.634 12 27.038 12 27.714C12 28.322 12.704 28.702 13.344 28.942L13.754 29.082L14.094 29.186C15.974 29.754 18.734 30 22 30C25.016 30 27.598 29.79 29.456 29.312L30.064 29.138L30.444 29.018C31.13 28.784 32 28.39 32 27.714C32 27.038 31.318 25.634 29.34 24.254C27.488 22.962 24.88 22 22 22ZM36 20C38.088 20 39.984 20.69 41.386 21.666C42.666 22.56 44 24.046 44 25.858C44 28.528 41.406 29.484 39.074 29.818L38.474 29.892L37.896 29.942L37.62 29.958C37.864 29.268 38 28.518 38 27.714C37.9988 27.1156 37.927 26.5195 37.786 25.938C38.558 25.878 39.192 25.778 39.664 25.636C39.872 25.572 39.684 25.376 39.464 25.206L39.25 25.05L39.098 24.948C38.4977 24.5382 37.8208 24.2539 37.108 24.112C36.348 22.592 35.18 21.276 33.936 20.226C34.6138 20.0763 35.3059 20.0005 36 20ZM8 20C8.716 20.0027 9.404 20.078 10.064 20.226C8.82 21.276 7.652 22.592 6.892 24.112C6.17916 24.2539 5.50231 24.5382 4.902 24.948L4.646 25.124C4.392 25.308 4.094 25.564 4.336 25.636C4.808 25.778 5.442 25.88 6.216 25.938C6.07244 26.5191 5.99991 27.1154 6 27.714C6 28.518 6.136 29.268 6.38 29.958L5.82 29.918L5.228 29.858C2.824 29.564 0 28.644 0 25.858C0 24.048 1.332 22.56 2.614 21.666C4.19995 20.5796 6.07764 19.9988 8 20ZM35 8C36.3261 8 37.5979 8.52678 38.5355 9.46447C39.4732 10.4021 40 11.6739 40 13C40 14.3261 39.4732 15.5979 38.5355 16.5355C37.5979 17.4732 36.3261 18 35 18C33.6739 18 32.4021 17.4732 31.4645 16.5355C30.5268 15.5979 30 14.3261 30 13C30 11.6739 30.5268 10.4021 31.4645 9.46447C32.4021 8.52678 33.6739 8 35 8ZM9 8C10.3261 8 11.5979 8.52678 12.5355 9.46447C13.4732 10.4021 14 11.6739 14 13C14 14.3261 13.4732 15.5979 12.5355 16.5355C11.5979 17.4732 10.3261 18 9 18C7.67392 18 6.40215 17.4732 5.46447 16.5355C4.52678 15.5979 4 14.3261 4 13C4 11.6739 4.52678 10.4021 5.46447 9.46447C6.40215 8.52678 7.67392 8 9 8ZM22 0C24.1217 0 26.1566 0.842854 27.6569 2.34315C29.1571 3.84344 30 5.87827 30 8C30 10.1217 29.1571 12.1566 27.6569 13.6569C26.1566 15.1571 24.1217 16 22 16C19.8783 16 17.8434 15.1571 16.3431 13.6569C14.8429 12.1566 14 10.1217 14 8C14 5.87827 14.8429 3.84344 16.3431 2.34315C17.8434 0.842854 19.8783 0 22 0ZM35 12C34.7348 12 34.4804 12.1054 34.2929 12.2929C34.1054 12.4804 34 12.7348 34 13C34 13.2652 34.1054 13.5196 34.2929 13.7071C34.4804 13.8946 34.7348 14 35 14C35.2652 14 35.5196 13.8946 35.7071 13.7071C35.8946 13.5196 36 13.2652 36 13C36 12.7348 35.8946 12.4804 35.7071 12.2929C35.5196 12.1054 35.2652 12 35 12ZM9 12C8.73478 12 8.48043 12.1054 8.29289 12.2929C8.10536 12.4804 8 12.7348 8 13C8 13.2652 8.10536 13.5196 8.29289 13.7071C8.48043 13.8946 8.73478 14 9 14C9.26522 14 9.51957 13.8946 9.70711 13.7071C9.89464 13.5196 10 13.2652 10 13C10 12.7348 9.89464 12.4804 9.70711 12.2929C9.51957 12.1054 9.26522 12 9 12ZM22 4C20.9391 4 19.9217 4.42143 19.1716 5.17157C18.4214 5.92172 18 6.93913 18 8C18 9.06087 18.4214 10.0783 19.1716 10.8284C19.9217 11.5786 20.9391 12 22 12C23.0609 12 24.0783 11.5786 24.8284 10.8284C25.5786 10.0783 26 9.06087 26 8C26 6.93913 25.5786 5.92172 24.8284 5.17157C24.0783 4.42143 23.0609 4 22 4Z" fill="#4CAF4F"/>
</svg>
