<svg width="403" height="363" viewBox="0 0 403 363" fill="none" xmlns="http://www.w3.org/2000/svg">
<path d="M196.495 362.197C305.016 362.197 392.99 357.055 392.99 350.712C392.99 344.369 305.016 339.227 196.495 339.227C87.9737 339.227 0 344.369 0 350.712C0 357.055 87.9737 362.197 196.495 362.197Z" fill="#F5F5F5"/>
<path d="M297.078 94.2145L287.025 90.1561C287.025 90.1561 273.759 114.374 269.959 115.602C264.79 117.266 254.088 121.892 247.744 122.704C246.883 123.719 245.474 126.874 245.606 128.02C254.129 130.871 272.857 127.087 276.87 124.104C286.001 117.337 297.078 94.2145 297.078 94.2145Z" fill="#E58A7B"/>
<path d="M300.169 88.7053C302.044 95.6349 291.889 109.575 291.889 109.575L278.583 102.108C278.583 102.108 281.076 96.3755 284.116 90.5417C288.991 81.1161 298.031 80.8016 300.169 88.7053Z" fill="#4CAF4F"/>
<path opacity="0.2" d="M300.169 88.7053C302.044 95.6349 291.889 109.575 291.889 109.575L278.583 102.108C278.583 102.108 281.076 96.3755 284.116 90.5417C288.991 81.1161 298.031 80.8016 300.169 88.7053Z" fill="black"/>
<path opacity="0.2" d="M283.863 105.091L289.103 108.033L290.025 91.9316C286.974 94.2753 284.826 101.337 283.863 105.091Z" fill="black"/>
<path d="M291.413 83.4903C291.413 83.4903 281.056 106.562 287.096 149.52H327.907C328.556 143.249 326.407 112.649 334.18 83.1047C329.703 82.2288 325.173 81.6493 320.62 81.3698C314.845 81.0348 309.056 81.0348 303.28 81.3698C299.277 81.7768 295.31 82.4856 291.413 83.4903Z" fill="#4CAF4F"/>
<path opacity="0.2" d="M291.413 83.4903C291.413 83.4903 281.056 106.562 287.096 149.52H327.907C328.556 143.249 326.407 112.649 334.18 83.1047C329.703 82.2288 325.173 81.6493 320.62 81.3698C314.845 81.0348 309.056 81.0348 303.28 81.3698C299.277 81.7768 295.31 82.4856 291.413 83.4903Z" fill="black"/>
<path d="M281.948 351.625C281.887 352.721 297.362 353.604 316.506 353.604C335.65 353.604 351.236 352.721 351.297 351.625C351.358 350.529 335.893 349.657 316.739 349.657C297.585 349.657 282.019 350.54 281.948 351.625Z" fill="#E8ECF1"/>
<path d="M309.189 322.834L301.951 325.639L308.186 341.765L315.424 338.96L309.189 322.834Z" fill="#E58A7B"/>
<path d="M341.467 343.823H333.836L331.038 326.139H338.67L341.467 343.823Z" fill="#E58A7B"/>
<path d="M333.309 342.94H341.882C342.031 342.941 342.175 342.994 342.288 343.091C342.401 343.187 342.476 343.321 342.5 343.468L343.605 350.255C343.628 350.426 343.615 350.599 343.565 350.764C343.516 350.928 343.431 351.08 343.318 351.209C343.204 351.338 343.064 351.441 342.908 351.511C342.751 351.581 342.581 351.617 342.409 351.615C339.42 351.564 337.98 351.382 334.211 351.382C331.89 351.382 327.116 351.625 323.894 351.625C320.671 351.625 320.458 348.46 321.786 348.165C327.745 346.877 330.055 345.122 332.042 343.417C332.392 343.109 332.842 342.94 333.309 342.94Z" fill="#263238"/>
<path d="M307.973 340.323L316.08 337.948C316.225 337.908 316.379 337.918 316.517 337.977C316.656 338.036 316.77 338.14 316.84 338.273L319.881 344.361C319.951 344.515 319.987 344.683 319.986 344.853C319.985 345.023 319.947 345.19 319.875 345.344C319.803 345.498 319.698 345.634 319.567 345.742C319.437 345.851 319.284 345.93 319.12 345.974C316.171 346.786 314.195 347.283 310.506 348.358C307.963 349.099 305.368 350.306 302.855 351.108C301.112 351.666 297.017 351.686 294.899 351.686C291.768 351.686 291.069 348.378 292.416 348.226C295.811 347.851 296.267 348.023 298.142 347.08C301.21 345.737 303.99 343.815 306.331 341.418C306.772 340.915 307.339 340.537 307.973 340.323Z" fill="#263238"/>
<path d="M249.021 122.663L240.63 119.143L237.174 128.457C240.613 128.981 244.112 128.981 247.552 128.457L249.021 122.663Z" fill="#E58A7B"/>
<path d="M234.387 118.899L234.164 125.088L237.174 128.436L240.63 119.123L234.387 118.899Z" fill="#E58A7B"/>
<path d="M310.182 324.203L302.922 327.01L306.137 335.348L313.398 332.542L310.182 324.203Z" fill="#CF6F64"/>
<path d="M338.67 326.139H331.038L332.488 335.26H340.119L338.67 326.139Z" fill="#CF6F64"/>
<path opacity="0.2" d="M285.799 137.903C285.951 139.739 286.123 141.616 286.346 143.544L316.688 133.682C321.427 132.276 325.545 129.295 328.363 125.23C328.485 122.521 328.637 119.67 328.87 116.698C328.971 115.257 329.093 113.776 329.224 112.274C329.356 110.773 329.539 109.109 329.731 107.506L285.799 137.903Z" fill="black"/>
<path d="M295.71 104.624L294.697 104.502C295.295 99.4295 299.075 95.432 303.058 95.5334V96.548C299.571 96.477 296.247 100.079 295.71 104.624Z" fill="white"/>
<path d="M301.112 113.989H300.939V112.974C304.426 113.106 307.699 109.464 308.236 104.928L309.25 105.05C308.713 110.012 305.054 113.989 301.112 113.989Z" fill="white"/>
<path d="M320.053 61.8187C318.624 67.4091 316.942 77.6463 320.62 81.3698C320.62 81.3698 318.046 87.0413 307.679 87.0413C298.203 87.0413 303.28 81.3698 303.28 81.3698C309.584 79.8885 309.696 75.2823 308.865 70.9196L320.053 61.8187Z" fill="#E58A7B"/>
<path d="M315.492 65.5321L308.875 70.9196C309.08 71.9221 309.198 72.9404 309.229 73.9633C311.165 75.891 315.046 71.0109 315.442 68.515C315.643 67.5324 315.66 66.521 315.492 65.5321Z" fill="#CF6F64"/>
<path d="M297.494 61.7477C297.954 62.5467 298.574 63.2421 299.316 63.7903C300.057 64.3384 300.903 64.7276 301.801 64.9335C304.233 65.4713 305.449 63.229 304.78 60.9766C304.182 58.9475 302.186 56.2182 299.713 56.6849C299.184 56.7942 298.688 57.0289 298.267 57.3694C297.847 57.7099 297.514 58.1464 297.297 58.6421C297.079 59.1379 296.984 59.6786 297.018 60.2189C297.052 60.7593 297.215 61.2835 297.494 61.7477Z" fill="#CF6F64"/>
<path d="M301.517 43.8606C297.727 45.5955 296.389 60.6723 301.152 62.9044C305.915 65.1364 308.692 40.5632 301.517 43.8606Z" fill="#263238"/>
<path d="M321.208 53.4078C320.296 60.9766 320.195 65.4307 316.141 69.3064C314.885 70.5925 313.298 71.5061 311.556 71.9463C309.814 72.3865 307.984 72.3361 306.269 71.8008C304.553 71.2654 303.019 70.266 301.836 68.9127C300.652 67.5594 299.865 65.9049 299.561 64.132C298.335 57.3343 300.027 46.1028 307.608 43.0895C309.201 42.3861 310.952 42.1221 312.681 42.3248C314.41 42.5274 316.054 43.1893 317.441 44.2419C318.828 45.2945 319.909 46.6995 320.572 48.3111C321.234 49.9228 321.454 51.6825 321.208 53.4078Z" fill="#E58A7B"/>
<path d="M308.753 47.7769C314.367 46.3463 318.492 45.3723 317.013 50.0495C315.057 56.2994 312.705 62.3463 315.857 62.6202C317.783 62.7927 326.296 59.1808 325.211 55.5182C324.269 52.3323 328.251 51.4598 328.961 49.8466C331.586 44.0026 324.076 44.7737 325.414 41.2226C326.752 37.6716 319.333 31.9493 315.28 34.8003C308.682 39.4065 297.362 39.3355 303.311 31.7565C307.577 26.3488 299.967 27.4547 299.967 27.4547C299.967 27.4547 304.568 30.1839 296.825 34.4046C288.636 38.9094 296.146 51.0134 308.753 47.7769Z" fill="#263238"/>
<path d="M324.188 61.7477C323.079 63.3533 321.414 64.4889 319.516 64.9335C317.013 65.4713 316.05 63.229 316.992 60.9766C317.833 58.9475 320.144 56.2182 322.536 56.6849C324.927 57.1517 325.475 59.7591 324.188 61.7477Z" fill="#E58A7B"/>
<path d="M287.096 149.52C287.096 149.52 280.245 210.902 279.708 234.197C279.161 258.425 302.926 334.022 302.926 334.022L315.087 328.949C315.087 328.949 300.899 259.876 302.926 236.084C305.074 210.141 313.952 149.56 313.952 149.56L287.096 149.52Z" fill="#4CAF4F"/>
<path opacity="0.2" d="M304.122 166.372C298.659 177.715 302.338 200.147 305.297 213.438C306.422 204.054 307.76 193.867 309.027 184.442C308.905 169.953 307.78 158.762 304.122 166.372Z" fill="black"/>
<path d="M314.55 324.931C314.611 324.931 315.989 328.807 315.989 328.807L301.963 334.712L299.754 330.593L314.55 324.931Z" fill="#4CAF4F"/>
<path d="M301.578 149.52C301.578 149.52 306.817 207.899 310.283 229.763C314.094 253.718 329.032 333.494 329.032 333.494H343.007C343.007 333.494 334.636 255.655 333.055 231.934C331.332 206.204 327.907 149.52 327.907 149.52H301.578Z" fill="#4CAF4F"/>
<path d="M343.22 329.852C343.281 329.852 343.686 333.758 343.686 333.758H328.322L327.228 329.274L343.22 329.852Z" fill="#4CAF4F"/>
<path opacity="0.2" d="M337.869 325.226C337.837 325.226 337.807 325.215 337.782 325.194C337.758 325.174 337.742 325.145 337.737 325.114C337.656 324.404 330.106 254.093 328.687 232.787C327.147 209.674 324.046 158.407 324.015 157.89C324.014 157.873 324.016 157.856 324.022 157.84C324.027 157.824 324.036 157.81 324.047 157.797C324.059 157.785 324.072 157.775 324.088 157.768C324.103 157.761 324.12 157.758 324.137 157.758C324.17 157.758 324.202 157.77 324.227 157.793C324.251 157.816 324.266 157.847 324.269 157.88C324.269 158.397 327.4 209.624 328.941 232.777C330.359 254.083 337.91 324.343 337.98 325.104C337.983 325.121 337.983 325.138 337.978 325.154C337.974 325.171 337.967 325.186 337.956 325.2C337.946 325.213 337.933 325.224 337.918 325.232C337.902 325.24 337.886 325.245 337.869 325.246V325.226Z" fill="black"/>
<path d="M309.614 55.5181C309.614 56.137 309.229 56.6342 308.824 56.6342C308.419 56.6342 308.125 56.137 308.165 55.5181C308.206 54.8992 308.55 54.4021 308.956 54.4021C309.361 54.4021 309.655 54.9094 309.614 55.5181Z" fill="#263238"/>
<path d="M302.662 55.5181C302.662 56.137 302.267 56.6342 301.872 56.6342C301.477 56.6342 301.173 56.137 301.203 55.5181C301.233 54.8992 301.598 54.4021 302.004 54.4021C302.409 54.4021 302.703 54.9094 302.662 55.5181Z" fill="#263238"/>
<path d="M304.851 55.8326C304.005 57.7225 302.915 59.4929 301.608 61.0983C302.622 62.1129 304.517 61.6462 304.517 61.6462L304.851 55.8326Z" fill="#DF5753"/>
<path d="M305.034 64.2335C305.01 64.2335 304.987 64.2287 304.965 64.2195C304.944 64.2102 304.924 64.1965 304.908 64.1794C304.892 64.1623 304.88 64.1421 304.872 64.12C304.863 64.0979 304.86 64.0743 304.861 64.0508C304.864 64.0015 304.885 63.955 304.921 63.921C304.957 63.8871 305.005 63.8682 305.054 63.8682C305.829 63.8736 306.596 63.7051 307.297 63.375C307.999 63.0449 308.617 62.5617 309.108 61.9608C309.143 61.9301 309.188 61.9132 309.234 61.9132C309.281 61.9132 309.326 61.9301 309.361 61.9608C309.394 61.9948 309.412 62.0403 309.412 62.0876C309.412 62.1349 309.394 62.1804 309.361 62.2144C308.836 62.853 308.175 63.3659 307.426 63.7152C306.677 64.0646 305.86 64.2417 305.034 64.2335Z" fill="#263238"/>
<path d="M310.851 53.6513C310.802 53.6762 310.748 53.6893 310.694 53.6893C310.639 53.6893 310.585 53.6762 310.537 53.6513C310.158 53.406 309.726 53.2533 309.277 53.2057C308.828 53.1581 308.374 53.2169 307.952 53.3774C307.911 53.398 307.866 53.4101 307.821 53.4131C307.775 53.4161 307.729 53.4098 307.685 53.3947C307.642 53.3795 307.602 53.3558 307.568 53.325C307.533 53.2941 307.506 53.2568 307.486 53.215C307.449 53.1248 307.448 53.0233 307.484 52.9324C307.52 52.8414 307.59 52.7681 307.679 52.728C308.209 52.5114 308.783 52.426 309.353 52.4789C309.923 52.5319 310.471 52.7218 310.952 53.0324C310.991 53.0589 311.024 53.0928 311.05 53.1322C311.076 53.1716 311.093 53.2157 311.102 53.2619C311.11 53.3082 311.109 53.3556 311.099 53.4016C311.089 53.4475 311.07 53.491 311.043 53.5296C310.992 53.5877 310.925 53.63 310.851 53.6513Z" fill="#263238"/>
<path d="M299.977 51.6221C299.923 51.609 299.873 51.5809 299.835 51.541C299.801 51.5079 299.774 51.4684 299.756 51.4249C299.738 51.3813 299.728 51.3346 299.728 51.2873C299.728 51.2401 299.738 51.1933 299.756 51.1498C299.774 51.1062 299.801 51.0667 299.835 51.0337C300.223 50.5975 300.707 50.2571 301.248 50.0388C301.79 49.8206 302.374 49.7305 302.956 49.7756C303.003 49.7828 303.047 49.7995 303.087 49.8247C303.127 49.8498 303.162 49.883 303.188 49.922C303.215 49.961 303.233 50.005 303.242 50.0514C303.251 50.0978 303.25 50.1455 303.24 50.1916C303.218 50.2855 303.163 50.3683 303.085 50.4243C303.006 50.4804 302.91 50.5058 302.814 50.4959C302.354 50.4669 301.893 50.5432 301.466 50.7189C301.039 50.8947 300.658 51.1654 300.352 51.5105C300.305 51.5619 300.246 51.5995 300.18 51.6192C300.114 51.6389 300.043 51.6399 299.977 51.6221Z" fill="#263238"/>
<path d="M338.102 93.0883L327.562 90.2779C327.562 90.2779 317.225 115.754 313.567 117.408C308.601 119.681 296.024 127.554 290.673 131.277C290.379 132.546 290.613 135.904 291.281 136.827C300.402 135.163 317.864 128.436 321.512 125.017C329.832 117.215 338.102 93.0883 338.102 93.0883Z" fill="#E58A7B"/>
<path d="M330.745 344.28C330.23 344.32 329.718 344.18 329.295 343.884C329.165 343.766 329.067 343.616 329.012 343.449C328.957 343.281 328.946 343.103 328.981 342.93C328.988 342.822 329.023 342.718 329.084 342.629C329.144 342.54 329.228 342.468 329.326 342.423C330.177 341.987 332.559 343.498 332.832 343.671C332.862 343.689 332.886 343.717 332.898 343.75C332.911 343.783 332.913 343.819 332.903 343.853C332.895 343.889 332.877 343.921 332.852 343.948C332.827 343.975 332.796 343.994 332.761 344.006C332.101 344.168 331.425 344.26 330.745 344.28ZM329.731 342.697C329.654 342.68 329.575 342.68 329.498 342.697C329.459 342.716 329.427 342.747 329.405 342.785C329.384 342.823 329.374 342.866 329.376 342.91C329.349 343.028 329.354 343.151 329.39 343.267C329.425 343.383 329.491 343.487 329.579 343.569C329.974 343.924 330.968 343.965 332.275 343.711C331.496 343.198 330.62 342.853 329.701 342.697H329.731Z" fill="#4CAF4F"/>
<path d="M332.711 344.006C332.684 344.014 332.656 344.014 332.63 344.006C331.869 343.579 330.441 341.905 330.653 341.053C330.685 340.918 330.761 340.798 330.87 340.711C330.978 340.625 331.113 340.577 331.251 340.576C331.387 340.558 331.526 340.57 331.657 340.61C331.788 340.65 331.909 340.718 332.011 340.81C332.853 341.53 332.903 343.742 332.903 343.853C332.908 343.887 332.902 343.921 332.885 343.95C332.869 343.98 332.843 344.003 332.812 344.016C332.778 344.023 332.743 344.019 332.711 344.006ZM331.353 340.911H331.282C331.049 340.911 331.018 341.043 331.008 341.094C330.886 341.591 331.788 342.859 332.538 343.458C332.535 342.601 332.27 341.765 331.778 341.063C331.661 340.961 331.509 340.906 331.353 340.911Z" fill="#4CAF4F"/>
<path d="M303.838 343.011C303.218 343.228 302.543 343.228 301.922 343.011C301.782 342.935 301.662 342.824 301.575 342.689C301.489 342.555 301.437 342.4 301.426 342.24C301.413 342.14 301.426 342.038 301.463 341.944C301.5 341.85 301.561 341.767 301.639 341.702C302.449 340.972 305.763 341.702 306.138 341.845C306.174 341.854 306.206 341.875 306.228 341.904C306.25 341.934 306.261 341.97 306.26 342.007C306.261 342.045 306.252 342.083 306.232 342.115C306.212 342.148 306.183 342.173 306.149 342.189C305.402 342.527 304.629 342.802 303.838 343.011ZM302.186 341.804C302.07 341.827 301.962 341.88 301.872 341.956C301.84 341.98 301.815 342.013 301.8 342.051C301.786 342.089 301.783 342.13 301.791 342.169C301.797 342.276 301.831 342.379 301.887 342.469C301.944 342.56 302.022 342.634 302.115 342.687C302.652 342.971 303.899 342.748 305.51 342.068C304.425 341.794 303.301 341.704 302.186 341.804Z" fill="#4CAF4F"/>
<path d="M306.118 342.189H306.037C305.024 342.007 302.997 340.84 302.936 339.968C302.936 339.765 303.027 339.481 303.514 339.318C303.678 339.26 303.852 339.235 304.026 339.245C304.201 339.256 304.371 339.301 304.527 339.379C305.622 339.917 306.199 341.865 306.23 341.956C306.237 341.987 306.236 342.019 306.227 342.049C306.218 342.079 306.202 342.107 306.179 342.129C306.164 342.153 306.143 342.174 306.118 342.189ZM303.716 339.623H303.615C303.301 339.734 303.301 339.866 303.301 339.907C303.301 340.434 304.77 341.398 305.794 341.723C305.558 340.908 305.059 340.194 304.375 339.694C304.172 339.59 303.937 339.565 303.716 339.623Z" fill="#4CAF4F"/>
<path d="M291.535 130.679L280.965 135.549L279.738 138.592L283.64 141.22C283.64 141.22 290.937 140.429 293.014 135.731L291.535 130.679Z" fill="#E58A7B"/>
<path d="M291.981 137C291.744 134.966 291.074 133.008 290.015 131.257L291.687 129.999C292.945 132.016 293.747 134.284 294.038 136.644L291.981 137Z" fill="#263238"/>
<path d="M293.785 132.119C294.008 132.471 294.118 132.884 294.099 133.3C294.08 133.717 293.934 134.117 293.679 134.447C293.425 134.778 293.075 135.021 292.677 135.145C292.28 135.27 291.854 135.268 291.457 135.141C291.06 135.014 290.712 134.768 290.46 134.436C290.208 134.104 290.065 133.702 290.049 133.286C290.033 132.869 290.146 132.457 290.372 132.107C290.598 131.757 290.926 131.485 291.312 131.328C291.745 131.107 292.248 131.066 292.711 131.214C293.174 131.363 293.56 131.688 293.785 132.119Z" fill="#263238"/>
<path d="M273.82 139.485L275.229 140.906L284.714 136.847L280.965 135.549L273.82 139.485Z" fill="#E58A7B"/>
<path opacity="0.2" d="M314.55 324.931C314.611 324.931 315.989 328.807 315.989 328.807L301.963 334.712L299.754 330.593L314.55 324.931Z" fill="black"/>
<path opacity="0.2" d="M343.22 329.852C343.281 329.852 343.686 333.758 343.686 333.758H328.322L327.228 329.274L343.22 329.852Z" fill="black"/>
<path d="M340.849 90.1662C343.635 99.1656 332.741 111.473 332.741 111.473L317.692 105.324C319.475 100.123 321.532 95.0189 323.853 90.0343C328.474 80.0609 338.031 81.0857 340.849 90.1662Z" fill="#4CAF4F"/>
<path opacity="0.2" d="M340.849 90.1662C343.635 99.1656 332.741 111.473 332.741 111.473L317.692 105.324C319.475 100.123 321.532 95.0189 323.853 90.0343C328.474 80.0609 338.031 81.0857 340.849 90.1662Z" fill="black"/>
<path d="M191.306 0H184.83V1.04502H191.306V0Z" fill="#4CAF4F"/>
<path d="M275.135 41.3611L274.352 58.774L275.395 58.8211L276.178 41.4082L275.135 41.3611Z" fill="#4CAF4F"/>
<path d="M273.121 4.68738H153.535L142.408 253.991H261.993L273.121 4.68738Z" fill="#4CAF4F"/>
<path opacity="0.56" d="M269.553 8.1167H149.968L138.841 257.421H258.426L269.553 8.1167Z" fill="#FAFAFA"/>
<path opacity="0.07" d="M265.986 11.5358H146.401L135.263 260.84H254.848L265.986 11.5358Z" fill="#4CAF4F"/>
<path d="M252.376 120.269H150.303L149.451 139.343H251.524L252.376 120.269Z" fill="white"/>
<path d="M206.437 106.349H150.921L150.546 114.882H206.062L206.437 106.349Z" fill="#4CAF4F"/>
<path d="M250.075 171.749H148.002L147.151 190.823H249.224L250.075 171.749Z" fill="white"/>
<path opacity="0.47" d="M231.357 216.584H162.717L161.693 239.442H230.333L231.357 216.584Z" fill="#4CAF4F"/>
<path d="M226.766 242.993H158.126C158.096 243.001 158.065 243.001 158.035 242.993C158.025 242.964 158.025 242.932 158.035 242.902L159.048 220.033C159.048 220.018 159.052 220.002 159.058 219.988C159.064 219.974 159.073 219.961 159.085 219.951C159.096 219.94 159.11 219.932 159.124 219.927C159.139 219.922 159.155 219.92 159.17 219.922H227.81C227.823 219.915 227.836 219.912 227.851 219.912C227.865 219.912 227.878 219.915 227.891 219.922C227.898 219.934 227.902 219.948 227.902 219.962C227.902 219.977 227.898 219.991 227.891 220.003L226.898 242.922C226.886 242.946 226.867 242.966 226.843 242.978C226.82 242.991 226.793 242.996 226.766 242.993ZM158.248 242.75H226.645L227.658 220.125H159.261L158.248 242.75Z" fill="white"/>
<path d="M194.448 157.829H148.62L148.245 166.372H194.063L194.448 157.829Z" fill="#4CAF4F"/>
<path d="M230.05 58.6532C229.788 64.2044 227.816 69.5383 224.405 73.9227C221.88 77.2345 218.63 79.923 214.906 81.782C211.182 83.641 207.082 84.6211 202.92 84.6469C199.557 84.6726 196.225 84.0087 193.128 82.6962C190.031 81.3836 187.235 79.4502 184.913 77.015C182.59 74.5798 180.791 71.6944 179.624 68.5365C178.458 65.3786 177.95 62.0151 178.131 58.6532C178.488 51.6769 181.493 45.1005 186.532 40.2688C191.571 35.437 198.264 32.7151 205.241 32.6595C208.606 32.6281 211.942 33.2879 215.043 34.5982C218.144 35.9085 220.943 37.8414 223.268 40.2775C225.593 42.7136 227.395 45.6012 228.561 48.7618C229.727 51.9224 230.234 55.2889 230.05 58.6532Z" fill="white"/>
<path d="M232.492 38.0977C232.426 39.5737 231.902 40.9924 230.992 42.156C230.319 43.0357 229.454 43.7497 228.464 44.2438C227.473 44.7379 226.383 44.999 225.276 45.007C224.204 45.0136 223.147 44.7571 222.196 44.2601C221.246 43.7632 220.431 43.0408 219.824 42.156C219.02 40.9605 218.622 39.5374 218.689 38.0977C218.787 36.2455 219.587 34.5004 220.926 33.2184C222.265 31.9364 224.042 31.214 225.895 31.1985C226.788 31.1903 227.674 31.3655 228.498 31.7131C229.322 32.0608 230.065 32.5736 230.683 33.22C231.302 33.8664 231.781 34.6326 232.092 35.4715C232.403 36.3104 232.539 37.2041 232.492 38.0977Z" fill="#4CAF4F"/>
<path d="M161.298 129.806C161.25 130.624 160.893 131.392 160.301 131.957C159.708 132.522 158.924 132.841 158.106 132.85C157.711 132.855 157.319 132.778 156.955 132.625C156.591 132.472 156.261 132.246 155.988 131.961C155.714 131.676 155.502 131.337 155.364 130.967C155.227 130.596 155.166 130.201 155.187 129.806C155.231 128.987 155.586 128.215 156.18 127.65C156.773 127.084 157.56 126.766 158.38 126.762C158.774 126.759 159.165 126.837 159.529 126.99C159.892 127.143 160.221 127.37 160.494 127.655C160.767 127.939 160.98 128.277 161.118 128.647C161.256 129.017 161.318 129.412 161.298 129.806Z" fill="#263238"/>
<path d="M174.959 129.806C174.913 130.625 174.557 131.395 173.964 131.96C173.371 132.525 172.586 132.844 171.767 132.85C171.373 132.853 170.982 132.776 170.619 132.622C170.256 132.469 169.928 132.242 169.656 131.957C169.383 131.672 169.172 131.334 169.035 130.964C168.898 130.594 168.838 130.2 168.859 129.806C168.902 128.989 169.256 128.219 169.847 127.653C170.438 127.088 171.223 126.769 172.041 126.762C172.436 126.758 172.827 126.834 173.192 126.987C173.556 127.14 173.885 127.366 174.159 127.651C174.432 127.937 174.644 128.275 174.782 128.646C174.92 129.016 174.98 129.411 174.959 129.806Z" fill="#263238"/>
<path d="M188.631 129.806C188.584 130.625 188.229 131.395 187.636 131.96C187.043 132.525 186.257 132.844 185.438 132.85C185.044 132.853 184.653 132.776 184.289 132.622C183.925 132.469 183.597 132.243 183.324 131.958C183.05 131.673 182.838 131.335 182.7 130.965C182.562 130.595 182.5 130.201 182.52 129.806C182.566 128.988 182.922 128.218 183.515 127.652C184.108 127.087 184.893 126.769 185.712 126.762C186.107 126.758 186.499 126.834 186.863 126.987C187.227 127.14 187.556 127.366 187.83 127.651C188.103 127.937 188.316 128.275 188.453 128.646C188.591 129.016 188.651 129.411 188.631 129.806Z" fill="#263238"/>
<path d="M158.998 181.286C158.949 182.104 158.593 182.873 158 183.437C157.408 184.002 156.624 184.321 155.805 184.33C155.411 184.333 155.02 184.256 154.656 184.102C154.293 183.949 153.964 183.723 153.691 183.438C153.418 183.153 153.205 182.815 153.067 182.445C152.929 182.075 152.867 181.681 152.887 181.286C152.933 180.468 153.289 179.698 153.882 179.132C154.475 178.567 155.26 178.249 156.079 178.243C156.474 178.239 156.865 178.317 157.228 178.47C157.592 178.624 157.92 178.85 158.194 179.135C158.467 179.42 158.679 179.757 158.818 180.127C158.956 180.497 159.017 180.892 158.998 181.286Z" fill="#263238"/>
<path d="M172.659 181.286C172.613 182.103 172.258 182.872 171.668 183.437C171.077 184.002 170.294 184.321 169.477 184.33C169.082 184.335 168.69 184.258 168.326 184.105C167.961 183.953 167.632 183.726 167.359 183.441C167.085 183.156 166.873 182.817 166.735 182.447C166.597 182.076 166.537 181.681 166.558 181.286C166.604 180.468 166.96 179.698 167.553 179.132C168.146 178.567 168.932 178.249 169.75 178.243C170.144 178.239 170.535 178.317 170.898 178.47C171.261 178.624 171.589 178.85 171.862 179.135C172.134 179.42 172.345 179.758 172.482 180.128C172.62 180.498 172.68 180.892 172.659 181.286Z" fill="#263238"/>
<path d="M186.361 181.286C186.314 182.105 185.958 182.875 185.366 183.44C184.773 184.005 183.987 184.324 183.168 184.33C182.774 184.332 182.384 184.253 182.021 184.099C181.658 183.946 181.33 183.719 181.057 183.435C180.784 183.15 180.572 182.813 180.433 182.444C180.294 182.074 180.232 181.68 180.25 181.286C180.298 180.469 180.655 179.7 181.247 179.135C181.839 178.57 182.624 178.251 183.442 178.243C183.837 178.238 184.229 178.314 184.593 178.467C184.957 178.62 185.286 178.846 185.56 179.131C185.833 179.417 186.046 179.755 186.183 180.126C186.321 180.496 186.381 180.891 186.361 181.286Z" fill="#263238"/>
<path d="M200.001 181.286C199.953 182.104 199.596 182.873 199.004 183.437C198.411 184.002 197.627 184.321 196.809 184.33C196.415 184.332 196.024 184.253 195.662 184.099C195.299 183.946 194.971 183.719 194.698 183.435C194.425 183.15 194.212 182.813 194.074 182.444C193.935 182.074 193.872 181.68 193.89 181.286C193.939 180.469 194.295 179.7 194.888 179.135C195.48 178.57 196.265 178.251 197.083 178.243C197.477 178.239 197.868 178.317 198.232 178.47C198.596 178.624 198.924 178.85 199.197 179.135C199.471 179.42 199.683 179.757 199.821 180.127C199.959 180.497 200.021 180.892 200.001 181.286Z" fill="#263238"/>
<path d="M213.723 181.286C213.675 182.104 213.318 182.873 212.726 183.437C212.133 184.002 211.349 184.321 210.531 184.33C210.136 184.335 209.744 184.258 209.38 184.105C209.016 183.953 208.686 183.726 208.413 183.441C208.139 183.156 207.927 182.817 207.789 182.447C207.652 182.076 207.591 181.681 207.612 181.286C207.659 180.468 208.014 179.698 208.607 179.132C209.2 178.567 209.986 178.249 210.805 178.243C211.199 178.239 211.59 178.317 211.954 178.47C212.317 178.624 212.646 178.85 212.919 179.135C213.192 179.42 213.405 179.757 213.543 180.127C213.681 180.497 213.743 180.892 213.723 181.286Z" fill="#263238"/>
<path d="M211.649 57.2994C215.891 53.1466 216.116 46.4903 212.152 42.432C208.188 38.3737 201.536 38.4503 197.294 42.603C193.052 46.7558 192.827 53.4122 196.791 57.4704C200.755 61.5287 207.407 61.4522 211.649 57.2994Z" fill="#4CAF4F"/>
<path d="M224.405 73.9227C221.88 77.2345 218.63 79.923 214.906 81.782C211.182 83.641 207.082 84.6211 202.92 84.6469C198.885 84.6812 194.903 83.7209 191.326 81.8506C187.749 79.9804 184.686 77.2577 182.408 73.9227C187.333 69.0121 195.127 65.806 203.761 65.806C212.396 65.806 219.915 69.0121 224.405 73.9227Z" fill="#4CAF4F"/>
<path opacity="0.1" d="M211.649 57.2994C215.891 53.1466 216.116 46.4903 212.152 42.432C208.188 38.3737 201.536 38.4503 197.294 42.603C193.052 46.7558 192.827 53.4122 196.791 57.4704C200.755 61.5287 207.407 61.4522 211.649 57.2994Z" fill="white"/>
<path opacity="0.1" d="M224.405 73.9227C221.88 77.2345 218.63 79.923 214.906 81.782C211.182 83.641 207.082 84.6211 202.92 84.6469C198.885 84.6812 194.903 83.7209 191.326 81.8506C187.749 79.9804 184.686 77.2577 182.408 73.9227C187.333 69.0121 195.127 65.806 203.761 65.806C212.396 65.806 219.915 69.0121 224.405 73.9227Z" fill="white"/>
<path d="M75.2982 143.939C74.3355 146.05 73.322 148.373 72.4403 150.625C71.5586 152.878 70.6567 155.201 69.8763 157.514C68.2831 162.073 67.0695 166.756 66.2483 171.516L66.0253 173.007C66.004 173.263 66.028 173.521 66.0962 173.768C66.3354 174.609 66.7121 175.404 67.211 176.122C68.5125 177.979 70.0222 179.681 71.7107 181.195C73.4908 182.853 75.3582 184.414 77.3048 185.872C79.2506 187.374 81.2978 188.835 83.3145 190.215L81.4194 193.776C76.6037 191.675 72.0328 189.052 67.7887 185.953C65.5244 184.3 63.4809 182.363 61.7081 180.19C60.6572 178.897 59.8378 177.431 59.286 175.858C58.9651 174.875 58.8009 173.848 58.7995 172.814C58.7995 172.571 58.7995 172.216 58.7995 172.043V171.546L58.9008 170.532C59.4818 165.246 60.5921 160.031 62.2148 154.968C63.0053 152.472 63.8464 149.986 64.8092 147.561C65.7719 145.137 66.7651 142.762 67.9914 140.297L75.2982 143.939Z" fill="#E58A7B"/>
<path d="M81.8855 189.586L89.0505 185.953L87.1959 193.827C87.1959 193.827 82.2808 195.206 80.0005 192.812L81.8855 189.586Z" fill="#E58A7B"/>
<path d="M95.6074 187.242L93.7022 193.756L87.1959 193.827L89.0505 185.953L95.6074 187.242Z" fill="#E58A7B"/>
<path d="M105.722 105.953C106.105 107.359 106.638 108.72 107.313 110.012C107.116 110.235 106.862 110.401 106.578 110.493C106.295 110.584 105.992 110.596 105.701 110.529L105.722 105.953Z" fill="#DF5753"/>
<path d="M105.509 106.014C105.929 106.014 106.269 105.492 106.269 104.847C106.269 104.203 105.929 103.681 105.509 103.681C105.089 103.681 104.749 104.203 104.749 104.847C104.749 105.492 105.089 106.014 105.509 106.014Z" fill="#263238"/>
<path d="M105.286 103.721L106.826 103.285C106.826 103.285 106.076 104.482 105.286 103.721Z" fill="#263238"/>
<path d="M85.9291 113.4C86.8513 118.118 87.7736 126.773 84.4698 129.928C84.4698 129.928 85.767 134.717 94.5332 134.717C104.171 134.717 99.1342 129.928 99.1342 129.928C93.8744 128.67 94.0062 124.764 94.9284 121.091L85.9291 113.4Z" fill="#E58A7B"/>
<path d="M83.3652 102.646C83.8516 110.529 83.8921 113.877 87.8648 117.925C93.8542 124.013 103.421 121.7 105.296 113.867C106.988 106.765 105.914 95.0768 98.2018 91.9418C96.509 91.2436 94.6662 90.9893 92.8478 91.203C91.0293 91.4166 89.2954 92.0912 87.8101 93.1628C86.3247 94.2345 85.1369 95.6677 84.3591 97.3271C83.5813 98.9864 83.2392 100.817 83.3652 102.646Z" fill="#E58A7B"/>
<path d="M84.1455 93.7782C80.1931 95.2189 74.9232 94.1434 76.9907 106.349C79.1797 119.275 75.8151 123.526 75.8151 123.526C75.8151 123.526 90.8038 126.722 106.107 123.333C106.107 123.333 101.435 115.156 102.742 109.129C104.414 101.519 103.097 98.7091 103.097 98.7091C103.097 98.7091 89.6991 91.749 84.1455 93.7782Z" fill="#263238"/>
<path d="M100.867 106.755C100.871 108.254 101.3 109.721 102.104 110.986C103.178 112.629 104.445 112 104.759 110.255C105.043 108.723 104.83 106.014 103.462 104.959C102.093 103.904 100.887 104.939 100.867 106.755Z" fill="#E58A7B"/>
<path d="M80.7099 95.1073C79.5749 91.9113 84.9866 86.9906 96.4384 89.0198C107.89 91.0489 108.387 100.596 108.387 100.596L106.076 97.8365L106.178 100.738L94.4116 103.001L80.7099 95.1073Z" fill="#263238"/>
<path d="M81.6828 130.466C81.6153 130.002 81.731 129.531 82.0055 129.152C82.28 128.773 82.6915 128.516 83.1523 128.436C86.7196 127.848 94.8271 126.651 98.9011 127.219C101.941 127.645 102.732 129.41 102.864 130.861C102.884 131.115 102.85 131.371 102.764 131.611C102.678 131.851 102.541 132.069 102.364 132.252C102.186 132.434 101.972 132.577 101.734 132.669C101.497 132.762 101.243 132.803 100.989 132.789L83.3753 131.998C82.96 131.977 82.5648 131.813 82.2564 131.534C81.948 131.254 81.7454 130.877 81.6828 130.466Z" fill="#4CAF4F"/>
<path opacity="0.6" d="M81.6828 130.466C81.6153 130.002 81.731 129.531 82.0055 129.152C82.28 128.773 82.6915 128.516 83.1523 128.436C86.7196 127.848 94.8271 126.651 98.9011 127.219C101.941 127.645 102.732 129.41 102.864 130.861C102.884 131.115 102.85 131.371 102.764 131.611C102.678 131.851 102.541 132.069 102.364 132.252C102.186 132.434 101.972 132.577 101.734 132.669C101.497 132.762 101.243 132.803 100.989 132.789L83.3753 131.998C82.96 131.977 82.5648 131.813 82.2564 131.534C81.948 131.254 81.7454 130.877 81.6828 130.466Z" fill="black"/>
<path d="M91.8679 307.714L98.4045 312.259L109.339 297.416L102.803 292.881L91.8679 307.714Z" fill="#E58A7B"/>
<path d="M76.6258 307.42L83.5273 311.356L93.2056 295.661L86.3041 291.724L76.6258 307.42Z" fill="#E58A7B"/>
<path d="M109.329 297.416L103.695 305.066L97.158 300.531L102.793 292.881L109.329 297.416Z" fill="#CF6F64"/>
<path d="M86.294 291.724L93.2056 295.671L88.2195 303.757L81.3079 299.81L86.294 291.724Z" fill="#CF6F64"/>
<path d="M97.3809 180.018C97.3809 180.018 122.899 212.211 118.106 243.004C114.244 267.871 91.8476 301.545 91.8476 301.545L81.318 296.31C88.7399 281.421 95.0736 266.013 100.269 250.207C101.871 245.3 102.339 240.092 101.637 234.978C100.935 229.863 99.0808 224.975 96.2155 220.683C83.2841 201.781 62.5695 213.033 76.5042 180.018H97.3809Z" fill="#4CAF4F"/>
<path opacity="0.6" d="M97.3809 180.018C97.3809 180.018 122.899 212.211 118.106 243.004C114.244 267.871 91.8476 301.545 91.8476 301.545L81.318 296.31C88.7399 281.421 95.0736 266.013 100.269 250.207C101.871 245.3 102.339 240.092 101.637 234.978C100.935 229.863 99.0808 224.975 96.2155 220.683C83.2841 201.781 62.5695 213.033 76.5042 180.018H97.3809Z" fill="black"/>
<path opacity="0.4" d="M109.897 200.695L106.188 197.002C106.188 197.296 113.373 241.705 115.39 254.184C116.58 250.539 117.491 246.808 118.116 243.024C120.487 227.917 115.532 212.485 109.897 200.695Z" fill="black"/>
<path d="M108.772 180.018C108.772 180.018 139.499 220.48 140.371 244.738C141.09 265.03 106.928 304.345 106.928 304.345L96.9959 297.913C96.9959 297.913 116.991 269.992 122.028 247.184C120.082 224.579 78.9365 180.018 78.9365 180.018H108.772Z" fill="#4CAF4F"/>
<path opacity="0.6" d="M108.772 180.018C108.772 180.018 139.499 220.48 140.371 244.738C141.09 265.03 106.928 304.345 106.928 304.345L96.9959 297.913C96.9959 297.913 116.991 269.992 122.028 247.184C120.082 224.579 78.9365 180.018 78.9365 180.018H108.772Z" fill="black"/>
<path d="M70.7581 131.734C67.4745 132.515 64.3228 144.467 64.3228 144.467L77.163 153.05C77.163 153.05 81.4397 143.594 79.9398 139.455C78.3892 135.143 74.8827 130.75 70.7581 131.734Z" fill="#4CAF4F"/>
<path opacity="0.2" d="M73.2713 139.435L72.3795 149.854L77.1528 153.06C78.4708 150.09 79.4466 146.979 80.0614 143.787L73.2713 139.435Z" fill="black"/>
<path d="M112.572 131.967C112.572 131.967 116.363 133.296 108.772 180.008H76.484C77.0312 166.818 77.0414 158.702 70.7581 131.734C75.2791 130.801 79.8617 130.198 84.4698 129.928C89.3517 129.577 94.2524 129.577 99.1342 129.928C105.438 130.506 112.572 131.967 112.572 131.967Z" fill="#4CAF4F"/>
<path d="M115.856 139.435C116.586 141.464 117.356 143.645 118.167 145.745C118.977 147.845 119.747 150.007 120.568 152.137L123.051 158.509L123.68 160.102L124.004 160.893L124.156 161.289C124.156 161.36 124.156 161.36 124.156 161.35C123.971 161.088 123.728 160.873 123.447 160.721C123.046 160.484 122.594 160.349 122.129 160.325C121.743 160.313 121.359 160.386 121.004 160.538C120.538 160.751 120.538 160.842 120.548 160.832C120.632 160.765 120.707 160.686 120.771 160.599C121.332 159.861 121.818 159.069 122.22 158.235C122.697 157.301 123.153 156.307 123.609 155.303C124.501 153.274 125.321 151.173 126.142 149.053C126.963 146.932 127.743 144.792 128.504 142.631L130.814 136.157L134.716 137.172C133.946 141.799 132.953 146.303 131.757 150.889C131.179 153.172 130.5 155.435 129.73 157.717C129.345 158.864 128.919 160 128.433 161.167C127.926 162.433 127.301 163.649 126.568 164.799C126.298 165.186 126 165.553 125.676 165.895C125.159 166.455 124.53 166.9 123.832 167.204C123.212 167.47 122.54 167.595 121.866 167.569C121.11 167.541 120.374 167.321 119.727 166.93C118.964 166.453 118.33 165.794 117.883 165.012C117.731 164.749 117.599 164.485 117.508 164.292L117.315 163.906L116.93 163.115L116.16 161.542C115.146 159.432 114.133 157.301 113.251 155.161C112.37 153.02 111.437 150.849 110.566 148.667C109.694 146.486 108.914 144.305 108.174 141.951L115.856 139.435Z" fill="#E58A7B"/>
<path d="M112.572 131.967C116.454 132.89 120.822 144.376 120.822 144.376L109.279 154.207C109.279 154.207 101.81 141.687 103.32 137.558C104.891 133.256 107.505 130.76 112.572 131.967Z" fill="#4CAF4F"/>
<path d="M132.648 132.525L136.702 129.137L139.52 133.53L137.442 137.192C137.442 137.192 134.138 140.236 131.22 138.684C130.756 137.641 130.645 136.476 130.903 135.365C131.161 134.253 131.774 133.257 132.648 132.525Z" fill="#E58A7B"/>
<path d="M144.019 129.147L143.715 130.253L137.3 131.328L136.672 129.137L144.019 129.147Z" fill="#E58A7B"/>
<path d="M107.718 304.863L96.1446 297.375L98.2221 293.763L111.225 301.768L107.718 304.863Z" fill="#4CAF4F"/>
<path d="M88.0574 310.829C87.0419 310.704 86.0662 310.358 85.1995 309.814C85.1637 309.802 85.1327 309.778 85.1108 309.747C85.0888 309.716 85.077 309.679 85.077 309.642C85.077 309.604 85.0888 309.567 85.1108 309.536C85.1327 309.505 85.1637 309.482 85.1995 309.469C85.5136 309.368 88.2398 308.526 89.0303 309.175C89.1191 309.249 89.1866 309.345 89.2258 309.454C89.265 309.563 89.2745 309.68 89.2532 309.794C89.2391 309.976 89.1787 310.152 89.0776 310.305C88.9765 310.458 88.8381 310.582 88.6756 310.666C88.4858 310.77 88.2736 310.826 88.0574 310.829ZM85.7771 309.713C87.0439 310.362 88.0574 310.595 88.5438 310.352C88.6497 310.293 88.7389 310.208 88.8027 310.105C88.8666 310.002 88.9031 309.884 88.9087 309.763C88.9087 309.601 88.9087 309.53 88.8175 309.489C88.3918 309.144 86.8717 309.408 85.7569 309.713H85.7771Z" fill="#263238"/>
<path d="M85.2705 309.885C85.217 309.884 85.166 309.862 85.1286 309.824C85.1135 309.796 85.1056 309.765 85.1056 309.733C85.1056 309.701 85.1135 309.67 85.1286 309.642C85.1286 309.55 85.7873 307.349 86.821 306.851C86.953 306.791 87.0965 306.76 87.2416 306.76C87.3867 306.76 87.5301 306.791 87.6622 306.851C87.8045 306.896 87.9277 306.988 88.0121 307.111C88.0966 307.234 88.1375 307.382 88.1283 307.531C88.0574 308.444 86.2028 309.702 85.3515 309.915L85.2705 309.885ZM87.2365 307.115C87.1379 307.118 87.0412 307.143 86.9528 307.186C86.3244 307.491 85.8076 308.678 85.5542 309.398C86.446 309.023 87.6723 308.028 87.7128 307.47C87.7128 307.379 87.7128 307.267 87.4797 307.166C87.4039 307.125 87.3216 307.098 87.2365 307.085V307.115Z" fill="#263238"/>
<path d="M102.519 315.212C101.374 315.212 99.7828 313.74 98.9113 312.837C98.889 312.806 98.877 312.769 98.877 312.731C98.877 312.693 98.889 312.655 98.9113 312.624C98.9313 312.592 98.9597 312.565 98.9936 312.547C99.0275 312.529 99.0656 312.521 99.1038 312.523C99.5092 312.523 103.026 313.051 103.522 314.045C103.575 314.134 103.603 314.236 103.603 314.339C103.603 314.443 103.575 314.544 103.522 314.633C103.448 314.788 103.335 314.922 103.195 315.021C103.055 315.12 102.892 315.182 102.722 315.201L102.519 315.212ZM99.5801 312.98C100.857 314.217 101.982 314.907 102.62 314.826C102.732 314.811 102.839 314.77 102.931 314.704C103.023 314.639 103.097 314.552 103.147 314.451C103.17 314.416 103.182 314.375 103.182 314.334C103.182 314.293 103.17 314.252 103.147 314.217C102.884 313.669 101.009 313.203 99.5801 312.98Z" fill="#263238"/>
<path d="M99.6916 312.929C99.4641 312.935 99.2366 312.918 99.0126 312.878C98.9813 312.873 98.9518 312.861 98.9269 312.841C98.9021 312.821 98.8827 312.796 98.8707 312.766C98.8556 312.737 98.8477 312.704 98.8477 312.67C98.8477 312.637 98.8556 312.604 98.8707 312.574C98.9315 312.503 100.3 310.849 101.597 310.737C101.964 310.709 102.328 310.825 102.61 311.062C103.006 311.407 102.985 311.711 102.884 311.904C102.631 312.594 100.877 312.929 99.6916 312.929ZM99.4281 312.553C100.563 312.614 102.377 312.239 102.61 311.742C102.61 311.742 102.691 311.579 102.428 311.356C102.323 311.265 102.201 311.196 102.068 311.154C101.936 311.112 101.796 311.098 101.658 311.113C100.784 311.357 100.006 311.863 99.4281 312.564V312.553Z" fill="#263238"/>
<path d="M85.5441 308.789L76.9501 306.354C76.802 306.309 76.6425 306.321 76.5022 306.386C76.362 306.452 76.2508 306.567 76.19 306.709L73.2916 313.233C73.2236 313.4 73.1916 313.58 73.1978 313.76C73.2041 313.941 73.2484 314.118 73.3279 314.28C73.4073 314.441 73.5201 314.585 73.6588 314.7C73.7976 314.815 73.9591 314.9 74.1328 314.948C77.1731 315.739 78.6324 315.962 82.4125 317.048C84.7434 317.697 88.0675 318.905 91.2801 319.818C94.4927 320.731 95.5669 317.596 94.3204 316.926C88.6857 313.943 88.2398 311.853 86.6994 309.621C86.4235 309.217 86.0146 308.923 85.5441 308.789Z" fill="#4CAF4F"/>
<path d="M99.1444 311.65L91.8071 306.577C91.6827 306.487 91.5293 306.445 91.3762 306.46C91.223 306.475 91.0806 306.546 90.9761 306.659L86.1116 311.894C85.993 312.029 85.9046 312.188 85.8522 312.36C85.7998 312.533 85.7846 312.714 85.8076 312.892C85.8306 313.071 85.8913 313.243 85.9856 313.396C86.08 313.549 86.2058 313.68 86.3548 313.781C88.9391 315.516 90.2768 316.216 93.5097 318.458C95.5365 319.838 99.4585 322.902 102.195 324.81C104.931 326.717 106.968 324.099 105.995 323.065C101.637 318.408 100.685 315.486 99.9652 312.837C99.8403 312.357 99.5495 311.937 99.1444 311.65Z" fill="#4CAF4F"/>
<path d="M93.1955 302.215L79.9702 295.63L81.3383 292.038L95.4656 298.978L93.1955 302.215Z" fill="#4CAF4F"/>
<path d="M75.9975 178.111L74.8827 181.033C74.7713 181.256 75.0348 181.489 75.4097 181.489H108.934C109.228 181.489 109.471 181.347 109.492 181.164L109.775 178.263C109.775 178.07 109.542 177.897 109.228 177.897H76.5245C76.426 177.888 76.3268 177.903 76.2351 177.94C76.1434 177.977 76.0619 178.035 75.9975 178.111Z" fill="#4CAF4F"/>
<path opacity="0.4" d="M75.9975 178.111L74.8827 181.033C74.7713 181.256 75.0348 181.489 75.4097 181.489H108.934C109.228 181.489 109.471 181.347 109.492 181.164L109.775 178.263C109.775 178.07 109.542 177.897 109.228 177.897H76.5245C76.426 177.888 76.3268 177.903 76.2351 177.94C76.1434 177.977 76.0619 178.035 75.9975 178.111Z" fill="white"/>
<path d="M81.2775 181.773H80.3958C80.2235 181.773 80.0918 181.682 80.1019 181.57L80.5174 177.806C80.5174 177.705 80.6796 177.613 80.8519 177.613H81.7336C81.9058 177.613 82.0376 177.705 82.0275 177.806L81.612 181.57C81.6018 181.682 81.4498 181.773 81.2775 181.773Z" fill="#4CAF4F"/>
<path d="M101.952 181.773H101.08C100.908 181.773 100.776 181.682 100.786 181.57L101.192 177.806C101.192 177.705 101.364 177.613 101.536 177.613H102.408C102.58 177.613 102.722 177.705 102.702 177.806L102.296 181.57C102.245 181.682 102.134 181.773 101.952 181.773Z" fill="#4CAF4F"/>
<path d="M80.5073 353.593C95.5018 353.593 107.657 352.712 107.657 351.625C107.657 350.538 95.5018 349.657 80.5073 349.657C65.5128 349.657 53.3574 350.538 53.3574 351.625C53.3574 352.712 65.5128 353.593 80.5073 353.593Z" fill="#F5F5F5"/>
<path d="M97.0465 348.845C92.2428 347.445 86.9122 345.649 83.6895 343.772C83.5982 343.711 83.4969 343.681 83.4057 343.63V321.857H93.1245C93.8623 321.813 94.5555 321.489 95.0624 320.951C95.5693 320.412 95.8516 319.7 95.8516 318.96C95.8516 318.221 95.5693 317.509 95.0624 316.97C94.5555 316.432 93.8623 316.108 93.1245 316.064H83.4564V216.817H77.619V316.064H67.9609C67.5666 316.04 67.1716 316.098 66.8003 316.233C66.4289 316.368 66.0891 316.578 65.8016 316.849C65.5141 317.12 65.2851 317.447 65.1285 317.811C64.972 318.174 64.8912 318.565 64.8912 318.96C64.8912 319.356 64.972 319.747 65.1285 320.11C65.2851 320.474 65.5141 320.801 65.8016 321.072C66.0891 321.343 66.4289 321.553 66.8003 321.688C67.1716 321.823 67.5666 321.88 67.9609 321.857H77.619V343.6C77.5278 343.6 77.4366 343.681 77.3453 343.742C74.0719 345.649 68.7818 347.445 63.9781 348.815C63.6536 348.913 63.375 349.124 63.1927 349.41C63.0103 349.696 62.9364 350.038 62.9841 350.374C63.0319 350.71 63.1983 351.018 63.4531 351.242C63.7079 351.466 64.0344 351.591 64.3734 351.595H96.6513C96.9752 351.573 97.2818 351.44 97.5198 351.219C97.7578 350.998 97.9129 350.702 97.9592 350.38C98.0054 350.058 97.94 349.73 97.7739 349.451C97.6078 349.172 97.3511 348.958 97.0465 348.845Z" fill="#E0E0E0"/>
<path d="M98.5363 206.712H62.4986C59.5993 206.712 57.249 209.065 57.249 211.967V222.692C57.249 225.594 59.5993 227.947 62.4986 227.947H98.5363C101.436 227.947 103.786 225.594 103.786 222.692V211.967C103.786 209.065 101.436 206.712 98.5363 206.712Z" fill="#4CAF4F"/>
<path d="M62.1641 227.957V229.804C62.1641 231.326 63.816 232.563 65.8429 232.563H95.2325C97.2594 232.563 98.9113 231.326 98.9113 229.804V227.957H62.1641Z" fill="#4CAF4F"/>
<path opacity="0.3" d="M62.1641 227.957V229.804C62.1641 231.326 63.816 232.563 65.8429 232.563H95.2325C97.2594 232.563 98.9113 231.326 98.9113 229.804V227.957H62.1641Z" fill="white"/>
</svg>
